<?xml version="1.0" encoding="UTF-8" standalone="no"?>
<!-- Generator: Adobe Illustrator 19.0.0, SVG Export Plug-In . SVG Version: 6.00 Build 0)  -->

<svg
   xmlns:dc="http://purl.org/dc/elements/1.1/"
   xmlns:cc="http://creativecommons.org/ns#"
   xmlns:rdf="http://www.w3.org/1999/02/22-rdf-syntax-ns#"
   xmlns:svg="http://www.w3.org/2000/svg"
   xmlns="http://www.w3.org/2000/svg"
   xmlns:sodipodi="http://sodipodi.sourceforge.net/DTD/sodipodi-0.dtd"
   xmlns:inkscape="http://www.inkscape.org/namespaces/inkscape"
   version="1.1"
   id="Layer_1"
   x="0px"
   y="0px"
   viewBox="0 0 512 512"
   style="enable-background:new 0 0 512 512;"
   xml:space="preserve"
   sodipodi:docname="route-66.svg"
   inkscape:version="0.92.4 (5da689c313, 2019-01-14)"><metadata
   id="metadata85"><rdf:RDF><cc:Work
       rdf:about=""><dc:format>image/svg+xml</dc:format><dc:type
         rdf:resource="http://purl.org/dc/dcmitype/StillImage" /></cc:Work></rdf:RDF></metadata><defs
   id="defs83" /><sodipodi:namedview
   pagecolor="#ffffff"
   bordercolor="#666666"
   borderopacity="1"
   objecttolerance="10"
   gridtolerance="10"
   guidetolerance="10"
   inkscape:pageopacity="0"
   inkscape:pageshadow="2"
   inkscape:window-width="1920"
   inkscape:window-height="1046"
   id="namedview81"
   showgrid="false"
   inkscape:zoom="2.6074563"
   inkscape:cx="57.963421"
   inkscape:cy="408.40271"
   inkscape:window-x="-11"
   inkscape:window-y="-11"
   inkscape:window-maximized="1"
   inkscape:current-layer="Layer_1" />
<g
   id="g6"
   transform="matrix(0.08581127,0,0,0.08581127,12.93936,0)"
   style="fill:#ff2a2a">
	<g
   id="g4600"
   style="fill:#ff2a2a"><g
     id="g4"
     style="fill:#ff2a2a">
		<path
   id="path2"
   d="m 496.807,318.889 c -3.042,-26.021 -12.337,-51.951 -21.325,-77.027 -10.82,-30.188 -21.041,-58.703 -21.041,-86.606 0,-16.373 15.331,-33.021 21.189,-38.014 L 489.598,105.526 384.293,0.222 372.483,12.05 c -0.392,0.393 -39.979,38.807 -108.353,0.716 l -8.129,-4.528 -8.129,4.528 C 181.168,49.929 141.906,14.316 139.476,12.007 L 127.929,0 22.401,105.526 36.369,117.242 c 5.498,4.611 21.189,21.49 21.189,38.014 0,27.905 -10.221,56.419 -21.041,86.606 -8.988,25.076 -18.283,51.006 -21.325,77.027 -3.626,31.014 2.226,57.853 17.89,82.048 33.256,51.37 88.27,64.898 136.809,76.835 29.092,7.155 56.57,13.912 76.644,27.719 L 256,512 l 9.464,-6.509 c 20.074,-13.805 47.553,-20.564 76.644,-27.719 48.539,-11.937 103.553,-25.465 136.809,-76.834 15.664,-24.196 21.517,-51.034 17.89,-82.049 z M 129.253,45.915 c 6.813,4.29 16.138,9.046 27.827,12.469 21.816,6.39 56.21,9.126 98.92,-12.151 42.71,21.279 77.102,18.542 98.92,12.151 11.689,-3.424 21.014,-8.18 27.827,-12.469 l 58.757,58.757 c -8.916,10.818 -19.321,27.512 -20.373,47.325 H 90.867 C 89.816,132.185 79.411,115.49 70.494,104.672 Z m 321.624,336.871 c -26.055,40.247 -70.107,51.081 -116.746,62.551 -26.977,6.634 -54.764,13.469 -78.132,26.722 C 232.631,458.806 204.846,451.97 177.867,445.337 131.229,433.867 87.178,423.035 61.121,382.786 35.611,343.382 50.602,301.56 67.96,253.134 75.864,231.082 83.951,208.506 88.106,185.4 h 335.785 c 4.155,23.106 12.242,45.682 20.146,67.734 17.36,48.426 32.351,90.247 6.84,129.652 z"
   inkscape:connector-curvature="0"
   style="fill:#ff2a2a" />
	</g></g>
</g>
<g
   id="g12"
   transform="matrix(0.08581127,0,0,0.08581127,12.93936,0)"
   style="fill:#ff2a2a">
	<g
   id="g10"
   style="fill:#ff2a2a">
		<path
   d="m 186.274,116.362 c 3.856,-2.711 6.145,-7.29 6.145,-12.23 0,-7.29 -6.025,-14.821 -14.399,-14.821 h -19.64 v 42.775 h 11.748 v -13.134 0 h 4.398 l 8.133,13.134 h 13.254 z m -8.734,-7.652 h -7.41 v -9.157 h 7.108 c 1.446,0 3.253,1.627 3.253,4.578 0,2.892 -1.506,4.579 -2.951,4.579 z"
   id="path8"
   inkscape:connector-curvature="0"
   style="fill:#ff2a2a" />
	</g>
</g>
<g
   id="g18"
   transform="matrix(0.08581127,0,0,0.08581127,12.93936,0)"
   style="fill:#ff2a2a">
	<g
   id="g16"
   style="fill:#ff2a2a">
		<path
   d="m 217.358,89.07 c -11.988,0 -20.664,10.242 -20.664,21.568 0,11.024 8.194,21.808 20.424,21.808 12.05,0 20.604,-10.362 20.604,-21.567 0,-10.905 -8.073,-21.809 -20.364,-21.809 z m -0.119,32.955 c -5.844,0 -8.616,-5.543 -8.616,-11.266 -10e-4,-5.604 2.65,-11.267 8.555,-11.267 5.783,0 8.616,5.361 8.616,11.146 0,5.602 -2.591,11.387 -8.555,11.387 z"
   id="path14"
   inkscape:connector-curvature="0"
   style="fill:#ff2a2a" />
	</g>
</g>
<g
   id="g24"
   transform="matrix(0.08581127,0,0,0.08581127,12.93936,0)"
   style="fill:#ff2a2a">
	<g
   id="g22"
   style="fill:#ff2a2a">
		<path
   d="M 268.985,89.311 V 111.3 c 0,5.543 -2.049,10.724 -7.59,10.724 -5.422,0 -7.531,-5.061 -7.531,-10.724 V 89.311 H 242.116 V 111.3 c 0,11.327 5.603,21.146 19.278,21.146 13.254,0 19.339,-9.217 19.339,-21.146 V 89.311 Z"
   id="path20"
   inkscape:connector-curvature="0"
   style="fill:#ff2a2a" />
	</g>
</g>
<g
   id="g30"
   transform="matrix(0.08581127,0,0,0.08581127,12.93936,0)"
   style="fill:#ff2a2a">
	<g
   id="g28"
   style="fill:#ff2a2a">
		<polygon
   points="296.694,99.553 296.694,132.086 308.442,132.086 308.442,99.553 320.732,99.553 320.732,89.311 284.344,89.311 284.344,99.553 "
   id="polygon26"
   style="fill:#ff2a2a" />
	</g>
</g>
<g
   id="g36"
   transform="matrix(0.08581127,0,0,0.08581127,12.93936,0)"
   style="fill:#ff2a2a">
	<g
   id="g34"
   style="fill:#ff2a2a">
		<polygon
   points="352.298,115.096 352.298,105.577 336.754,105.577 336.754,99.553 354.948,99.553 354.948,89.311 325.006,89.311 325.006,132.086 355.49,132.086 355.49,121.844 336.754,121.844 336.754,115.096 "
   id="polygon32"
   style="fill:#ff2a2a" />
	</g>
</g>
<g
   id="g42"
   transform="matrix(0.08581127,0,0,0.08581127,12.93936,0)"
   style="fill:#ff2a2a">
	<g
   id="g40"
   style="fill:#ff2a2a">
		<path
   d="m 184.203,281.622 c -11.799,0 -20.586,2.761 -27.114,8.536 0.754,-17.825 10.796,-28.369 27.114,-28.369 11.297,0 22.343,4.77 31.131,13.557 l 26.361,-30.628 c -15.816,-15.816 -35.148,-24.101 -56.738,-24.101 -44.688,0 -71.801,35.65 -71.801,94.396 0,55.484 24.353,87.869 67.031,87.869 38.161,0 66.781,-27.615 66.781,-62.763 -10e-4,-33.391 -26.864,-58.497 -62.765,-58.497 z m -4.017,81.341 c -11.297,0 -21.34,-10.544 -21.34,-22.846 0,-11.799 9.54,-21.088 21.34,-21.088 11.8,0 21.34,9.289 21.34,21.088 0,12.302 -10.042,22.846 -21.34,22.846 z"
   id="path38"
   inkscape:connector-curvature="0"
   style="fill:#ff2a2a" />
	</g>
</g>
<g
   id="g48"
   transform="matrix(0.08581127,0,0,0.08581127,12.93936,0)"
   style="fill:#ff2a2a">
	<g
   id="g46"
   style="fill:#ff2a2a">
		<path
   d="m 336.84,281.622 c -11.799,0 -20.586,2.761 -27.114,8.536 0.754,-17.825 10.796,-28.369 27.114,-28.369 11.297,0 22.343,4.77 31.13,13.557 l 26.361,-30.628 c -15.816,-15.816 -35.148,-24.101 -56.738,-24.101 -44.688,0 -71.801,35.65 -71.801,94.396 0,55.484 24.352,87.869 67.031,87.869 38.161,0 66.781,-27.615 66.781,-62.763 -10e-4,-33.391 -26.864,-58.497 -62.764,-58.497 z m -4.017,81.341 c -11.297,0 -21.34,-10.544 -21.34,-22.846 0,-11.799 9.54,-21.088 21.34,-21.088 11.8,0 21.34,9.289 21.34,21.088 0,12.302 -10.042,22.846 -21.34,22.846 z"
   id="path44"
   inkscape:connector-curvature="0"
   style="fill:#ff2a2a" />
	</g>
</g>
<g
   id="g50"
   transform="matrix(0.08581127,0,0,0.08581127,12.93936,0)"
   style="fill:#ff2a2a">
</g>
<g
   id="g52"
   transform="matrix(0.08581127,0,0,0.08581127,12.93936,0)"
   style="fill:#ff2a2a">
</g>
<g
   id="g54"
   transform="matrix(0.08581127,0,0,0.08581127,12.93936,0)"
   style="fill:#ff2a2a">
</g>
<g
   id="g56"
   transform="matrix(0.08581127,0,0,0.08581127,12.93936,0)"
   style="fill:#ff2a2a">
</g>
<g
   id="g58"
   transform="matrix(0.08581127,0,0,0.08581127,12.93936,0)"
   style="fill:#ff2a2a">
</g>
<g
   id="g60"
   transform="matrix(0.08581127,0,0,0.08581127,12.93936,0)"
   style="fill:#ff2a2a">
</g>
<g
   id="g62"
   transform="matrix(0.08581127,0,0,0.08581127,12.93936,0)"
   style="fill:#ff2a2a">
</g>
<g
   id="g64"
   transform="matrix(0.08581127,0,0,0.08581127,12.93936,0)"
   style="fill:#ff2a2a">
</g>
<g
   id="g66"
   transform="matrix(0.08581127,0,0,0.08581127,12.93936,0)"
   style="fill:#ff2a2a">
</g>
<g
   id="g68"
   transform="matrix(0.08581127,0,0,0.08581127,12.93936,0)"
   style="fill:#ff2a2a">
</g>
<g
   id="g70"
   transform="matrix(0.08581127,0,0,0.08581127,12.93936,0)"
   style="fill:#ff2a2a">
</g>
<g
   id="g72"
   transform="matrix(0.08581127,0,0,0.08581127,12.93936,0)"
   style="fill:#ff2a2a">
</g>
<g
   id="g74"
   transform="matrix(0.08581127,0,0,0.08581127,12.93936,0)"
   style="fill:#ff2a2a">
</g>
<g
   id="g76"
   transform="matrix(0.08581127,0,0,0.08581127,12.93936,0)"
   style="fill:#ff2a2a">
</g>
<g
   id="g78"
   transform="matrix(0.08581127,0,0,0.08581127,12.93936,0)"
   style="fill:#ff2a2a">
</g>
</svg>